# xmcd
#
# Track frame offsets: 
#        150
#        16773
#        35234
#        54170
#        83267
#        105077
#        125430
#        144800
#
# Disc length: 2188 seconds
#
# Revision: 0
# Processed by: cddbd v1.5.2PL0 Copyright (c) Steve Scherf et al.
# Submitted via: ExactAudioCopy v0.99pb5
#
DISCID=4d088a08
DTITLE=Walter Jackson - A Portrait of Walter Jackson
DYEAR=1983
DGENRE=Soul
TTITLE0=When the Loving (Goes Out of the Loving)
TTITLE1=Touching in the Dark
TTITLE2=I Had a Chance
TTITLE3=Someone Saved My Life Tonight
TTITLE4=Feelings
TTITLE5=It's Cool
TTITLE6=Unchained Melody
TTITLE7=I Want to Come Back as a Song
EXTD=
EXTT0=
EXTT1=
EXTT2=
EXTT3=
EXTT4=
EXTT5=
EXTT6=
EXTT7=
PLAYORDER=
